<svg xmlns="http://www.w3.org/2000/svg" width="380.30865478515625" height="354.9770812988281" viewBox="-73.54318237304688 -79.27108764648438 380.30865478515625 354.9770812988281"><title>Neo4j Graph Visualization</title><desc>Created using Neo4j (http://www.neo4j.com/)</desc><g class="layer relationships"><g class="relationship" transform="translate(22.70748723611118 -41.20785050997962) rotate(389.21542231956516)"><path class="outline" fill="#A5ABB6" stroke="none" d="M 24.018736134675446,-6.953439040707552 L 24.277555179777966,-5.987513214418485 A 168.21426746715548 168.21426746715548 0 0 1 54.756764452684166,-11.21169358132903 L 54.67913817875284,-12.208676109558866 A 169.21426746715548 169.21426746715548 0 0 0 24.018736134675446,-6.953439040707552 Z M 76.73872067563302,-12.483789383058564 L 76.68598215924806,-11.485181026950158 A 168.21426746715548 168.21426746715548 0 0 1 107.28599686692209,-7.022742422581747 L 106.58204851218966,-4.10650225519678 L 114.20788198327575,-5.866236289436909 L 108.22459467323199,-10.911062645761705 L 107.52064631849956,-7.994822478376737 A 169.21426746715548 169.21426746715548 0 0 0 76.73872067563302,-12.483789383058564"/><text text-anchor="middle" pointer-events="none" font-size="8px" fill="#000000" x="65.7106763712949" y="-9.206156416858846" font-family="sans-serif">road</text></g><g class="relationship" transform="translate(143.59762923200668 26.398076461263624) rotate(379.22412640151094)"><path class="outline" fill="#A5ABB6" stroke="none" d="M 21.40063509461097,-12.933012701892217 L 21.90063509461097,-12.06698729810778 A 95.48183703727067 95.48183703727067 0 0 1 56.47980982515482,-23.94763345019301 L 56.341964301896255,-24.938087190514864 A 96.48183703727067 96.48183703727067 0 0 0 21.40063509461097,-12.933012701892217 Z M 78.41373528315714,-25.459514501447202 L 78.32281473334918,-24.463656352099306 A 95.48183703727067 95.48183703727067 0 0 1 113.42444135743428,-14.229161426610322 L 112.04880105443829,-11.56315059452934 L 119.87440668278923,-11.463669191633194 L 115.25862842809559,-17.78384253605163 L 113.8829881250996,-15.117831703970648 A 96.48183703727067 96.48183703727067 0 0 0 78.41373528315714,-25.459514501447202"/><text text-anchor="middle" pointer-events="none" font-size="8px" fill="#000000" x="67.37469468001399" y="-22.332355263520412" font-family="sans-serif">road</text></g><g class="relationship" transform="translate(277.7654777688716 73.1836212049595) rotate(202.55282857026452)"><path class="outline" fill="#A5ABB6" stroke="none" d="M 21.40063509461097,12.933012701892217 L 21.90063509461097,12.06698729810778 A 33.94959171999241 33.94959171999241 0 0 0 26.949543679035898,14.451750021877238 L 26.598261478827634,15.388019649611067 A 34.94959171999241 34.94959171999241 0 0 1 21.40063509461097,12.933012701892217 Z M 48.534424520126464,16.254136592556854 L 48.25805523825031,15.293085074668632 A 33.94959171999241 33.94959171999241 0 0 0 53.479270884778764,13.313823011422167 L 52.18878350125259,10.605568534280152 L 60.013612562031156,10.754061529384769 L 55.199920729480326,16.924828980944856 L 53.90943334595415,14.21657450380284 A 34.94959171999241 34.94959171999241 0 0 1 48.534424520126464,16.254136592556854"/><text text-anchor="middle" pointer-events="none" font-size="8px" fill="#000000" x="37.516298789888396" y="20.088548928289327" transform="rotate(180 37.516298789888396 17.088548928289327)" font-family="sans-serif">road</text></g><g class="relationship" transform="translate(201.4984601246807 41.510370847522005) rotate(465.7207687609317)"><path class="outline" fill="#A5ABB6" stroke="none" d="M 25 0.5 L 56.47494445771326 0.5 L 56.47494445771326 -0.5 L 25 -0.5 Z M 75.81088195771326 0.5 L 107.28582641542653 0.5 L 107.28582641542653 3.5 L 114.28582641542653 0 L 107.28582641542653 -3.5 L 107.28582641542653 -0.5 L 75.81088195771326 -0.5 Z"/><text text-anchor="middle" pointer-events="none" font-size="8px" fill="#000000" x="66.14291320771326" y="3" transform="rotate(180 66.14291320771326 0)" font-family="sans-serif">trek</text></g><g class="relationship" transform="translate(277.7654777688716 73.1836212049595) rotate(202.55282857026452)"><path class="outline" fill="#A5ABB6" stroke="none" d="M 25 0.5 L 26.79119993577398 0.5 L 26.79119993577398 -0.5 L 25 -0.5 Z M 48.79119993577398 0.5 L 50.58239987154796 0.5 L 50.58239987154796 3.5 L 57.58239987154796 0 L 50.58239987154796 -3.5 L 50.58239987154796 -0.5 L 48.79119993577398 -0.5 Z"/><text text-anchor="middle" pointer-events="none" font-size="8px" fill="#000000" x="37.79119993577398" y="3" transform="rotate(180 37.79119993577398 0)" font-family="sans-serif">tw…</text></g><g class="relationship" transform="translate(277.7654777688716 73.1836212049595) rotate(202.55282857026452)"><path class="outline" fill="#A5ABB6" stroke="none" d="M 21.40063509461097,-12.933012701892217 L 21.90063509461097,-12.06698729810778 A 33.94959171999241 33.94959171999241 0 0 1 28.192671656049384,-14.890821969303104 L 27.87800633145089,-15.840024652345733 A 34.94959171999241 34.94959171999241 0 0 0 21.40063509461097,-12.933012701892217 Z M 47.22302562929592,-16.603834118200467 L 46.98417892855138,-15.632776831762918 A 33.94959171999241 33.94959171999241 0 0 1 53.479270884778764,-13.313823011422167 L 52.18878350125259,-10.605568534280152 L 60.013612562031156,-10.754061529384769 L 55.199920729480326,-16.924828980944856 L 53.90943334595415,-14.21657450380284 A 34.94959171999241 34.94959171999241 0 0 0 47.22302562929592,-16.603834118200467"/><text text-anchor="middle" pointer-events="none" font-size="8px" fill="#000000" x="37.516298789888396" y="-14.088548928289327" transform="rotate(180 37.516298789888396 -17.088548928289327)" font-family="sans-serif">trek</text></g><g class="relationship" transform="translate(143.59762923200668 26.398076461263624) rotate(379.22412640151094)"><path class="outline" fill="#A5ABB6" stroke="none" d="M 25 0.5 L 44.31315993339871 0.5 L 44.31315993339871 -0.5 L 25 -0.5 Z M 90.77800368339871 0.5 L 110.09116361679742 0.5 L 110.09116361679742 3.5 L 117.09116361679742 0 L 110.09116361679742 -3.5 L 110.09116361679742 -0.5 L 90.77800368339871 -0.5 Z"/><text text-anchor="middle" pointer-events="none" font-size="8px" fill="#000000" x="67.54558180839871" y="3" font-family="sans-serif">twowheeler</text></g><g class="relationship" transform="translate(143.59762923200668 26.398076461263624) rotate(379.22412640151094)"><path class="outline" fill="#A5ABB6" stroke="none" d="M 21.40063509461097,12.933012701892217 L 21.90063509461097,12.06698729810778 A 95.48183703727067 95.48183703727067 0 0 0 57.79926155983141,24.12190187339145 L 57.67523491328927,25.11418076107752 A 96.48183703727067 96.48183703727067 0 0 1 21.40063509461097,12.933012701892217 Z M 77.07363655364382,25.572451935253042 L 76.99660565157335,24.57542322948464 A 95.48183703727067 95.48183703727067 0 0 0 113.42444135743428,14.229161426610322 L 112.04880105443829,11.56315059452934 L 119.87440668278923,11.463669191633194 L 115.25862842809559,17.78384253605163 L 113.8829881250996,15.117831703970648 A 96.48183703727067 96.48183703727067 0 0 1 77.07363655364382,25.572451935253042"/><text text-anchor="middle" pointer-events="none" font-size="8px" fill="#000000" x="67.37469468001397" y="28.332355263520412" font-family="sans-serif">trek</text></g><g class="relationship" transform="translate(22.70748723611118 -41.20785050997962) rotate(389.21542231956516)"><path class="outline" fill="#A5ABB6" stroke="none" d="M 24.018736134675446,6.953439040707552 L 24.277555179777966,5.987513214418485 A 168.21426746715548 168.21426746715548 0 0 0 56.087061656832006,11.309967200264595 L 56.017343732318224,12.307533945400706 A 169.21426746715548 169.21426746715548 0 0 1 24.018736134675446,6.953439040707552 Z M 75.39846593093552,12.549243142431664 L 75.35364787400565,11.550247976390779 A 168.21426746715548 168.21426746715548 0 0 0 107.28599686692209,7.022742422581747 L 106.58204851218966,4.10650225519678 L 114.20788198327575,5.866236289436909 L 108.22459467323199,10.911062645761705 L 107.52064631849956,7.994822478376737 A 169.21426746715548 169.21426746715548 0 0 1 75.39846593093552,12.549243142431664"/><text text-anchor="middle" pointer-events="none" font-size="8px" fill="#000000" x="65.71067637129495" y="15.206156416858846" font-family="sans-serif">trek</text></g><g class="relationship" transform="translate(22.70748723611118 -41.20785050997962) rotate(353.9730975273412)"><path class="outline" fill="#A5ABB6" stroke="none" d="M 21.40063509461097,12.933012701892217 L 21.90063509461097,12.06698729810778 A 37.8967715543273 37.8967715543273 0 0 0 30.024737589035656,15.565462561287951 L 29.739112116501097,16.523803883281012 A 38.8967715543273 38.8967715543273 0 0 1 21.40063509461097,12.933012701892217 Z M 49.1066282663588,17.257560603314936 L 48.89433282217133,16.280355075098257 A 37.8967715543273 37.8967715543273 0 0 0 57.259853124895436,13.406604812512532 L 55.960731992933454,10.70248124202064 L 63.78599497803685,10.826009433016548 L 58.992014634178084,17.012102906501717 L 57.6928935022161,14.307979336009828 A 38.8967715543273 38.8967715543273 0 0 1 49.1066282663588,17.257560603314936"/><text text-anchor="middle" pointer-events="none" font-size="8px" fill="#000000" x="39.39536563526733" y="20.616665285265114" font-family="sans-serif">trek</text></g><g class="relationship" transform="translate(108.55072728617806 -50.27109243863956) rotate(493.25553040086726)"><path class="outline" fill="#A5ABB6" stroke="none" d="M 24.018736134675446,-6.953439040707552 L 24.277555179777966,-5.987513214418485 A 181.7843462495166 181.7843462495166 0 0 1 59.529282206922026,-11.798440105332872 L 59.46438374824204,-12.796331978263481 A 182.7843462495166 182.7843462495166 0 0 0 24.018736134675446,-6.953439040707552 Z M 78.84289651102654,-13.027068448907954 L 78.80177652140716,-12.027914233356768 A 181.7843462495166 181.7843462495166 0 0 1 114.1818692333945,-7.057987732993607 L 113.47462907723867,-4.142544136982755 L 121.10244431677913,-5.893667967965167 L 115.12485610826893,-10.945245861008077 L 114.41761595211311,-8.029802264997224 A 182.7843462495166 182.7843462495166 0 0 0 78.84289651102654,-13.027068448907954"/><text text-anchor="middle" pointer-events="none" font-size="8px" fill="#000000" x="69.15653295922084" y="-9.668744538190793" transform="rotate(180 69.15653295922084 -12.668744538190793)" font-family="sans-serif">trek</text></g><g class="relationship" transform="translate(8.916400938296084 55.622833133113396) rotate(426.43975852907914)"><path class="outline" fill="#A5ABB6" stroke="none" d="M 24.018736134675446,-6.953439040707552 L 24.277555179777966,-5.987513214418485 A 116.18225245398651 116.18225245398651 0 0 1 29.636554861073627,-7.287963998339677 L 29.42386161890661,-8.265083021149323 A 117.18225245398651 117.18225245398651 0 0 0 24.018736134675446,-6.953439040707552 Z M 75.77472828911363,-8.970690451934956 L 75.59187642355704,-7.987549976080942 A 116.18225245398651 116.18225245398651 0 0 1 80.9879776468355,-6.850825993022245 L 80.30008662390304,-3.930756483478177 L 87.91612167292708,-5.732425191103846 L 81.90516567741213,-10.744252005747668 L 81.21727465447967,-7.8241824962036 A 117.18225245398651 117.18225245398651 0 0 0 75.77472828911363,-8.970690451934956"/><text text-anchor="middle" pointer-events="none" font-size="8px" fill="#000000" x="52.57166606349785" y="-7.432809545609075" font-family="sans-serif">twowheeler</text></g><g class="relationship" transform="translate(53.78420520195574 158.51574022702627) rotate(368.8230314801241)"><path class="outline" fill="#A5ABB6" stroke="none" d="M 24.018736134675446,6.953439040707552 L 24.277555179777966,5.987513214418485 A 114.27192722175292 114.27192722175292 0 0 0 42.492689348863045,9.315110923692217 L 42.39327195744698,10.31015674288048 A 115.27192722175292 115.27192722175292 0 0 1 24.018736134675446,6.953439040707552 Z M 61.78820329475456,10.607805805426779 L 61.71936695948489,9.610177839225628 A 114.27192722175292 114.27192722175292 0 0 0 80.02803453463856,6.843101596139719 L 79.3408650196314,3.922862212519803 L 86.95645468225288,5.726412625059667 L 80.94426055464811,10.73675410763294 L 80.25709103964094,7.816514724013024 A 115.27192722175292 115.27192722175292 0 0 1 61.78820329475456,10.607805805426779"/><text text-anchor="middle" pointer-events="none" font-size="8px" fill="#000000" x="52.09213816795418" y="13.367721409769544" font-family="sans-serif">trek</text></g><g class="relationship" transform="translate(53.78420520195574 158.51574022702627) rotate(368.8230314801241)"><path class="outline" fill="#A5ABB6" stroke="none" d="M 24.018736134675446,-6.953439040707552 L 24.277555179777966,-5.987513214418485 A 114.27192722175292 114.27192722175292 0 0 1 29.164750156296442,-7.182371212703188 L 28.948699226647463,-8.158753307888176 A 115.27192722175292 115.27192722175292 0 0 0 24.018736134675446,-6.953439040707552 Z M 75.29246304622728,-8.869979226447171 L 75.10647537951944,-7.8874271475055195 A 114.27192722175292 114.27192722175292 0 0 1 80.02803453463856,-6.843101596139719 L 79.3408650196314,-3.922862212519803 L 86.95645468225288,-5.726412625059667 L 80.94426055464811,-10.73675410763294 L 80.25709103964094,-7.816514724013024 A 115.27192722175292 115.27192722175292 0 0 0 75.29246304622728,-8.869979226447171"/><text text-anchor="middle" pointer-events="none" font-size="8px" fill="#000000" x="52.092138167954175" y="-7.367721409769544" font-family="sans-serif">twowheeler</text></g><g class="relationship" transform="translate(8.916400938296084 55.622833133113396) rotate(426.43975852907914)"><path class="outline" fill="#A5ABB6" stroke="none" d="M 24.018736134675446,6.953439040707552 L 24.277555179777966,5.987513214418485 A 116.18225245398651 116.18225245398651 0 0 0 42.97092876509004,9.387965577392166 L 42.87300670029624,10.383159663601745 A 117.18225245398651 117.18225245398651 0 0 1 24.018736134675446,6.953439040707552 Z M 62.267342542111805,10.678403063957276 L 62.19975886319726,9.680689454576111 A 116.18225245398651 116.18225245398651 0 0 0 80.9879776468355,6.850825993022245 L 80.30008662390304,3.930756483478177 L 87.91612167292708,5.732425191103846 L 81.90516567741213,10.744252005747668 L 81.21727465447967,7.8241824962036 A 117.18225245398651 117.18225245398651 0 0 1 62.267342542111805,10.678403063957276"/><text text-anchor="middle" pointer-events="none" font-size="8px" fill="#000000" x="52.57166606349787" y="13.432809545609075" font-family="sans-serif">trek</text></g><g class="relationship" transform="translate(108.55072728617806 -50.27109243863956) rotate(404.63827355544043)"><path class="outline" fill="#A5ABB6" stroke="none" d="M 25 0.5 L 52.14496649786396 0.5 L 52.14496649786396 -0.5 L 25 -0.5 Z M 71.48090399786396 0.5 L 98.62587049572792 0.5 L 98.62587049572792 3.5 L 105.62587049572792 0 L 98.62587049572792 -3.5 L 98.62587049572792 -0.5 L 71.48090399786396 -0.5 Z"/><text text-anchor="middle" pointer-events="none" font-size="8px" fill="#000000" x="61.81293524786396" y="3" font-family="sans-serif">trek</text></g><g class="relationship" transform="translate(22.70748723611118 -41.20785050997962) rotate(353.9730975273412)"><path class="outline" fill="#A5ABB6" stroke="none" d="M 25 0.5 L 28.65431965773464 0.5 L 28.65431965773464 -0.5 L 25 -0.5 Z M 50.66603840773464 0.5 L 54.32035806546928 0.5 L 54.32035806546928 3.5 L 61.32035806546928 0 L 54.32035806546928 -3.5 L 54.32035806546928 -0.5 L 50.66603840773464 -0.5 Z"/><text text-anchor="middle" pointer-events="none" font-size="8px" fill="#000000" x="39.66017903273464" y="3" font-family="sans-serif">road</text></g><g class="relationship" transform="translate(108.55072728617806 -50.27109243863956) rotate(493.25553040086726)"><path class="outline" fill="#A5ABB6" stroke="none" d="M 24.018736134675446,6.953439040707552 L 24.277555179777966,5.987513214418485 A 181.7843462495166 181.7843462495166 0 0 0 46.075656342934565,10.419339170451792 L 45.93674916930439,11.409644576432243 A 182.7843462495166 182.7843462495166 0 0 1 24.018736134675446,6.953439040707552 Z M 92.39971333868357,11.96287074499105 L 92.28442498013204,10.969538678468211 A 181.7843462495166 181.7843462495166 0 0 0 114.1818692333945,7.057987732993607 L 113.47462907723867,4.142544136982755 L 121.10244431677913,5.893667967965167 L 115.12485610826893,10.945245861008077 L 114.41761595211311,8.029802264997224 A 182.7843462495166 182.7843462495166 0 0 1 92.39971333868357,11.96287074499105"/><text text-anchor="middle" pointer-events="none" font-size="8px" fill="#000000" x="69.15653295922084" y="15.668744538190793" transform="rotate(180 69.15653295922084 12.668744538190793)" font-family="sans-serif">twowheeler</text></g><g class="relationship" transform="translate(22.70748723611118 -41.20785050997962) rotate(353.9730975273412)"><path class="outline" fill="#A5ABB6" stroke="none" d="M 21.40063509461097,-12.933012701892217 L 21.90063509461097,-12.06698729810778 A 37.8967715543273 37.8967715543273 0 0 1 22.550428440159735,-12.433664688395197 L 22.067574843900676,-13.309365781565518 A 38.8967715543273 38.8967715543273 0 0 0 21.40063509461097,-12.933012701892217 Z M 56.999389472421,-14.632790712688895 L 56.5841784419094,-13.723065589290897 A 37.8967715543273 37.8967715543273 0 0 1 57.259853124895436,-13.406604812512532 L 55.960731992933454,-10.70248124202064 L 63.78599497803685,-10.826009433016548 L 58.992014634178084,-17.012102906501717 L 57.6928935022161,-14.307979336009828 A 38.8967715543273 38.8967715543273 0 0 0 56.999389472421,-14.632790712688895"/><text text-anchor="middle" pointer-events="none" font-size="8px" fill="#000000" x="39.395365635267325" y="-14.616665285265114" font-family="sans-serif">Public…</text></g><g class="relationship" transform="translate(108.55072728617806 -50.27109243863956) rotate(425.4339790255977)"><path class="outline" fill="#A5ABB6" stroke="none" d="M 25 0.5 L 28.981903123477878 0.5 L 28.981903123477878 -0.5 L 25 -0.5 Z M 48.31784062347788 0.5 L 52.299743746955755 0.5 L 52.299743746955755 3.5 L 59.299743746955755 0 L 52.299743746955755 -3.5 L 52.299743746955755 -0.5 L 48.31784062347788 -0.5 Z"/><text text-anchor="middle" pointer-events="none" font-size="8px" fill="#000000" x="38.64987187347788" y="3" font-family="sans-serif">trek</text></g><g class="relationship" transform="translate(8.916400938296084 55.622833133113396) rotate(475.03015170809306)"><path class="outline" fill="#A5ABB6" stroke="none" d="M 24.018736134675446,-6.953439040707552 L 24.277555179777966,-5.987513214418485 A 144.194658813003 144.194658813003 0 0 1 50.0134077670192,-10.434730671270898 L 49.93306865174971,-11.43149826030944 A 145.194658813003 145.194658813003 0 0 0 24.018736134675446,-6.953439040707552 Z M 69.31959320655922,-11.69535432941862 L 69.2664114009264,-10.696769482973593 A 144.194658813003 144.194658813003 0 0 1 95.11376449522938,-6.951614009675977 L 94.41645949748911,-4.0337782123552195 L 102.03826552193452,-5.81087498116883 L 96.04350449221639,-10.842061739436986 L 95.34619949447612,-7.924225942116228 A 145.194658813003 145.194658813003 0 0 0 69.31959320655922,-11.69535432941862"/><text text-anchor="middle" pointer-events="none" font-size="8px" fill="#000000" x="59.628726324789824" y="-8.387427325197905" transform="rotate(180 59.628726324789824 -11.387427325197905)" font-family="sans-serif">trek</text></g><g class="relationship" transform="translate(-44.54317841907374 170.10993488793173) rotate(353.27506662227086)"><path class="outline" fill="#A5ABB6" stroke="none" d="M 21.40063509461097,12.933012701892217 L 21.90063509461097,12.06698729810778 A 51.17736027903714 51.17736027903714 0 0 0 23.72670550931693,13.07225103408254 L 23.262386724697123,13.957919180878612 A 52.17736027903714 52.17736027903714 0 0 1 21.40063509461097,12.933012701892217 Z M 68.58723702549646,15.467730028245697 L 68.18288690738895,14.553125752076795 A 51.17736027903714 51.17736027903714 0 0 0 70.0718075603536,13.671611653985403 L 68.74802929962877,10.979472891508193 L 76.57409438292123,11.031485506040317 L 71.83684524132005,17.261130003955017 L 70.51306698059521,14.568991241477805 A 52.17736027903714 52.17736027903714 0 0 1 68.58723702549646,15.467730028245697"/><text text-anchor="middle" pointer-events="none" font-size="8px" fill="#000000" x="45.768850923306395" y="22.394806327635024" font-family="sans-serif">twowheeler</text></g><g class="relationship" transform="translate(-44.54317841907374 170.10993488793173) rotate(353.27506662227086)"><path class="outline" fill="#A5ABB6" stroke="none" d="M 25 0.5 L 36.33632328511566 0.5 L 36.33632328511566 -0.5 L 25 -0.5 Z M 55.67226078511566 0.5 L 67.00858407023132 0.5 L 67.00858407023132 3.5 L 74.00858407023132 0 L 67.00858407023132 -3.5 L 67.00858407023132 -0.5 L 55.67226078511566 -0.5 Z"/><text text-anchor="middle" pointer-events="none" font-size="8px" fill="#000000" x="46.00429203511566" y="3" font-family="sans-serif">trek</text></g><g class="relationship" transform="translate(-44.54317841907374 170.10993488793173) rotate(353.27506662227086)"><path class="outline" fill="#A5ABB6" stroke="none" d="M 21.40063509461097,-12.933012701892217 L 21.90063509461097,-12.06698729810778 A 51.17736027903714 51.17736027903714 0 0 1 35.012822673405914,-17.37934151499003 L 34.76903337882922,-18.34916973681584 A 52.17736027903714 52.17736027903714 0 0 0 21.40063509461097,-12.933012701892217 Z M 56.81386934587434,-19.08350271862573 L 56.63516053305057,-18.09960071119861 A 51.17736027903714 51.17736027903714 0 0 1 70.0718075603536,-13.671611653985403 L 68.74802929962877,-10.979472891508193 L 76.57409438292123,-11.031485506040317 L 71.83684524132005,-17.261130003955017 L 70.51306698059521,-14.568991241477805 A 52.17736027903714 52.17736027903714 0 0 0 56.81386934587434,-19.08350271862573"/><text text-anchor="middle" pointer-events="none" font-size="8px" fill="#000000" x="45.76885092330639" y="-16.394806327635024" font-family="sans-serif">road</text></g><g class="relationship" transform="translate(8.916400938296084 55.622833133113396) rotate(475.03015170809306)"><path class="outline" fill="#A5ABB6" stroke="none" d="M 24.018736134675446,6.953439040707552 L 24.277555179777966,5.987513214418485 A 144.194658813003 144.194658813003 0 0 0 36.61011422874573,8.719235391514445 L 36.43682233943724,9.704105901327722 A 145.194658813003 145.194658813003 0 0 1 24.018736134675446,6.953439040707552 Z M 82.8578522478226,10.335909216099168 L 82.7114283136436,9.346687283720229 A 144.194658813003 144.194658813003 0 0 0 95.11376449522938,6.951614009675977 L 94.41645949748911,4.0337782123552195 L 102.03826552193452,5.81087498116883 L 96.04350449221639,10.842061739436986 L 95.34619949447612,7.924225942116228 A 145.194658813003 145.194658813003 0 0 1 82.8578522478226,10.335909216099168"/><text text-anchor="middle" pointer-events="none" font-size="8px" fill="#000000" x="59.62872632478986" y="14.387427325197905" transform="rotate(180 59.62872632478986 11.387427325197905)" font-family="sans-serif">twowheeler</text></g><g class="relationship" transform="translate(-44.54317841907374 170.10993488793173) rotate(396.74290073746374)"><path class="outline" fill="#A5ABB6" stroke="none" d="M 25 0.5 L 50.85143067902288 0.5 L 50.85143067902288 -0.5 L 25 -0.5 Z M 70.18736817902288 0.5 L 96.03879885804577 0.5 L 96.03879885804577 3.5 L 103.03879885804577 0 L 96.03879885804577 -3.5 L 96.03879885804577 -0.5 L 70.18736817902288 -0.5 Z"/><text text-anchor="middle" pointer-events="none" font-size="8px" fill="#000000" x="60.51939942902288" y="3" font-family="sans-serif">trek</text></g><g class="relationship" transform="translate(58.057888798317606 246.7059858231036) rotate(326.0657560264181)"><path class="outline" fill="#A5ABB6" stroke="none" d="M 25 0.5 L 50.53208197331761 0.5 L 50.53208197331761 -0.5 L 25 -0.5 Z M 69.86801947331762 0.5 L 95.40010144663522 0.5 L 95.40010144663522 3.5 L 102.40010144663522 0 L 95.40010144663522 -3.5 L 95.40010144663522 -0.5 L 69.86801947331762 -0.5 Z"/><text text-anchor="middle" pointer-events="none" font-size="8px" fill="#000000" x="60.20005072331761" y="3" font-family="sans-serif">trek</text></g></g><g class="layer nodes"><g class="node" transform="translate(22.70748723611118,-41.20785050997962)"><circle class="outline" cx="0" cy="0" r="25" fill="#F16667" stroke="#eb2728" stroke-width="2px"/><text text-anchor="middle" pointer-events="none" font-family="sans-serif" dy="1.5625" font-size="25" fill="#FFFFFF"/><text text-anchor="middle" pointer-events="none" x="0" y="5" font-size="10px" fill="#FFFFFF" font-family="sans-serif"> Darjeeling</text></g><g class="node" transform="translate(163.75905072360538,175.58601523637572)"><circle class="outline" cx="0" cy="0" r="25" fill="#D9C8AE" stroke="#c0a378" stroke-width="2px"/><text text-anchor="middle" pointer-events="none" font-family="sans-serif" dy="1.5625" font-size="25" fill="#2A2C34"/><text text-anchor="middle" pointer-events="none" x="0" y="5" font-size="10px" fill="#2A2C34" font-family="sans-serif"> Sandak…</text></g><g class="node" transform="translate(143.59762923200668,26.398076461263624)"><circle class="outline" cx="0" cy="0" r="25" fill="#8DCC93" stroke="#5db665" stroke-width="2px"/><text text-anchor="middle" pointer-events="none" font-family="sans-serif" dy="1.5625" font-size="25" fill="#2A2C34"/><text text-anchor="middle" pointer-events="none" x="0" y="5" font-size="10px" fill="#2A2C34" font-family="sans-serif"> Tumbling</text></g><g class="node" transform="translate(277.7654777688716,73.1836212049595)"><circle class="outline" cx="0" cy="0" r="25" fill="#8DCC93" stroke="#5db665" stroke-width="2px"/><text text-anchor="middle" pointer-events="none" font-family="sans-serif" dy="1.5625" font-size="25" fill="#2A2C34"/><text text-anchor="middle" pointer-events="none" x="0" y="5" font-size="10px" fill="#2A2C34" font-family="sans-serif"> Gairibus</text></g><g class="node" transform="translate(201.4984601246807,41.510370847522005)"><circle class="outline" cx="0" cy="0" r="25" fill="#8DCC93" stroke="#5db665" stroke-width="2px"/><text text-anchor="middle" pointer-events="none" font-family="sans-serif" dy="1.5625" font-size="25" fill="#2A2C34"/><text text-anchor="middle" pointer-events="none" x="0" y="5" font-size="10px" fill="#2A2C34" font-family="sans-serif"> BhikeBh…</text></g><g class="node" transform="translate(108.55072728617806,-50.27109243863956)"><circle class="outline" cx="0" cy="0" r="25" fill="#F16667" stroke="#eb2728" stroke-width="2px"/><text text-anchor="middle" pointer-events="none" font-family="sans-serif" dy="1.5625" font-size="25" fill="#FFFFFF"/><text text-anchor="middle" pointer-events="none" x="0" y="5" font-size="10px" fill="#FFFFFF" font-family="sans-serif"> Rimbik</text></g><g class="node" transform="translate(8.916400938296084,55.622833133113396)"><circle class="outline" cx="0" cy="0" r="25" fill="#8DCC93" stroke="#5db665" stroke-width="2px"/><text text-anchor="middle" pointer-events="none" font-family="sans-serif" dy="1.5625" font-size="25" fill="#2A2C34"/><text text-anchor="middle" pointer-events="none" x="0" y="5" font-size="10px" fill="#2A2C34" font-family="sans-serif"> Sirikhola</text></g><g class="node" transform="translate(53.78420520195574,158.51574022702627)"><circle class="outline" cx="0" cy="0" r="25" fill="#8DCC93" stroke="#5db665" stroke-width="2px"/><text text-anchor="middle" pointer-events="none" font-family="sans-serif" dy="1.5625" font-size="25" fill="#2A2C34"/><text text-anchor="middle" pointer-events="none" x="0" y="5" font-size="10px" fill="#2A2C34" font-family="sans-serif"> Gurdum</text></g><g class="node" transform="translate(-44.54317841907374,170.10993488793173)"><circle class="outline" cx="0" cy="0" r="25" fill="#8DCC93" stroke="#5db665" stroke-width="2px"/><text text-anchor="middle" pointer-events="none" font-family="sans-serif" dy="1.5625" font-size="25" fill="#2A2C34"/><text text-anchor="middle" pointer-events="none" x="0" y="5" font-size="10px" fill="#2A2C34" font-family="sans-serif"> Rammam</text></g><g class="node" transform="translate(58.057888798317606,246.7059858231036)"><circle class="outline" cx="0" cy="0" r="25" fill="#D9C8AE" stroke="#c0a378" stroke-width="2px"/><text text-anchor="middle" pointer-events="none" font-family="sans-serif" dy="1.5625" font-size="25" fill="#2A2C34"/><text text-anchor="middle" pointer-events="none" x="0" y="5" font-size="10px" fill="#2A2C34" font-family="sans-serif"> Sabargr…</text></g></g></svg>