<svg xmlns="http://www.w3.org/2000/svg" width="523.2176513671875" height="158.6324462890625" viewBox="-332.5205993652344 -26.83415985107422 523.2176513671875 158.6324462890625"><title>Neo4j Graph Visualization</title><desc>Created using Neo4j (http://www.neo4j.com/)</desc><g class="layer relationships"><g class="relationship" transform="translate(161.6970809479192 45.91819452233776) rotate(186.04548836504188)"><path class="outline" fill="#A5ABB6" stroke="none" d="M 21.40063509461097,12.933012701892217 L 21.90063509461097,12.06698729810778 A 144.93905944568914 144.93905944568914 0 0 0 80.84566307945508,30.85276298132665 L 80.75235143668796,31.848399931888494 A 145.93905944568914 145.93905944568914 0 0 1 21.40063509461097,12.933012701892217 Z M 102.81518360767875,32.24059148328111 L 102.75731685958336,31.242267167507507 A 144.93905944568914 144.93905944568914 0 0 0 162.33276990964686,14.563325773224266 L 160.92605583232134,11.91357946373459 L 168.74996364467702,11.722617311046282 L 164.20838867941424,18.096320852543833 L 162.80167460208872,15.446574543054156 A 145.93905944568914 145.93905944568914 0 0 1 102.81518360767875,32.24059148328111"/><text text-anchor="middle" pointer-events="none" font-size="8px" fill="#000000" x="91.78523102438561" y="34.96216603129342" transform="rotate(180 91.78523102438561 31.96216603129342)" font-family="sans-serif">road</text></g><g class="relationship" transform="translate(-28.07281235775463 25.82023546894591) rotate(190.29914312299303)"><path class="outline" fill="#A5ABB6" stroke="none" d="M 25 0.5 L 52.98429360859906 0.5 L 52.98429360859906 -0.5 L 25 -0.5 Z M 72.32023110859906 0.5 L 100.30452471719812 0.5 L 100.30452471719812 3.5 L 107.30452471719812 0 L 100.30452471719812 -3.5 L 100.30452471719812 -0.5 L 72.32023110859906 -0.5 Z"/><text text-anchor="middle" pointer-events="none" font-size="8px" fill="#000000" x="62.65226235859906" y="3" transform="rotate(180 62.65226235859906 0)" font-family="sans-serif">trek</text></g><g class="relationship" transform="translate(-158.24560845164257 2.1658401534287464) rotate(505.2895353326)"><path class="outline" fill="#A5ABB6" stroke="none" d="M 25 0.5 L 75.19450068009681 0.5 L 75.19450068009681 -0.5 L 25 -0.5 Z M 94.53043818009681 0.5 L 144.72493886019362 0.5 L 144.72493886019362 3.5 L 151.72493886019362 0 L 144.72493886019362 -3.5 L 144.72493886019362 -0.5 L 94.53043818009681 -0.5 Z"/><text text-anchor="middle" pointer-events="none" font-size="8px" fill="#000000" x="84.86246943009681" y="3" transform="rotate(180 84.86246943009681 0)" font-family="sans-serif">trek</text></g><g class="relationship" transform="translate(161.6970809479192 45.91819452233776) rotate(186.04548836504188)"><path class="outline" fill="#A5ABB6" stroke="none" d="M 25 0.5 L 61.05231019521226 0.5 L 61.05231019521226 -0.5 L 25 -0.5 Z M 122.77887269521226 0.5 L 158.83118289042451 0.5 L 158.83118289042451 3.5 L 165.83118289042451 0 L 158.83118289042451 -3.5 L 158.83118289042451 -0.5 L 122.77887269521226 -0.5 Z"/><text text-anchor="middle" pointer-events="none" font-size="8px" fill="#000000" x="91.91559144521226" y="3" transform="rotate(180 91.91559144521226 0)" font-family="sans-serif">PublicTransport</text></g><g class="relationship" transform="translate(161.6970809479192 45.91819452233776) rotate(186.04548836504188)"><path class="outline" fill="#A5ABB6" stroke="none" d="M 21.40063509461097,-12.933012701892217 L 21.90063509461097,-12.06698729810778 A 144.93905944568914 144.93905944568914 0 0 1 82.17369050425907,-30.971067154642483 L 82.08954152219832,-31.967520339101313 A 145.93905944568914 145.93905944568914 0 0 0 21.40063509461097,-12.933012701892217 Z M 101.47460467428402,-32.312111547180976 L 101.42592380787436,-31.31329716340109 A 144.93905944568914 144.93905944568914 0 0 1 162.33276990964686,-14.563325773224266 L 160.92605583232134,-11.91357946373459 L 168.74996364467702,-11.722617311046282 L 164.20838867941424,-18.096320852543833 L 162.80167460208872,-15.446574543054156 A 145.93905944568914 145.93905944568914 0 0 0 101.47460467428402,-32.312111547180976"/><text text-anchor="middle" pointer-events="none" font-size="8px" fill="#000000" x="91.78523102438558" y="-28.96216603129342" transform="rotate(180 91.78523102438558 -31.96216603129342)" font-family="sans-serif">trek</text></g></g><g class="layer nodes"><g class="node" transform="translate(161.6970809479192,45.91819452233776)"><circle class="outline" cx="0" cy="0" r="25" fill="#F16667" stroke="#eb2728" stroke-width="2px"/><text text-anchor="middle" pointer-events="none" font-family="sans-serif" dy="1.5625" font-size="25" fill="#FFFFFF"/><text text-anchor="middle" pointer-events="none" x="0" y="5" font-size="10px" fill="#FFFFFF" font-family="sans-serif"> Darjeeling</text></g><g class="node" transform="translate(-303.5205864623498,102.79826424789096)"><circle class="outline" cx="0" cy="0" r="25" fill="#D9C8AE" stroke="#c0a378" stroke-width="2px"/><text text-anchor="middle" pointer-events="none" font-family="sans-serif" dy="1.5625" font-size="25" fill="#2A2C34"/><text text-anchor="middle" pointer-events="none" x="0" y="5" font-size="10px" fill="#2A2C34" font-family="sans-serif"> Sandak…</text></g><g class="node" transform="translate(-28.07281235775463,25.82023546894591)"><circle class="outline" cx="0" cy="0" r="25" fill="#F16667" stroke="#eb2728" stroke-width="2px"/><text text-anchor="middle" pointer-events="none" font-family="sans-serif" dy="1.5625" font-size="25" fill="#FFFFFF"/><text text-anchor="middle" pointer-events="none" x="0" y="5" font-size="10px" fill="#FFFFFF" font-family="sans-serif"> Rimbik</text></g><g class="node" transform="translate(-158.24560845164257,2.1658401534287464)"><circle class="outline" cx="0" cy="0" r="25" fill="#8DCC93" stroke="#5db665" stroke-width="2px"/><text text-anchor="middle" pointer-events="none" font-family="sans-serif" dy="1.5625" font-size="25" fill="#2A2C34"/><text text-anchor="middle" pointer-events="none" x="0" y="5" font-size="10px" fill="#2A2C34" font-family="sans-serif"> BhikeBh…</text></g></g></svg>